# xmcd
#
# Track frame offsets: 
#        150
#        9292
#        21470
#        36419
#        52899
#        65353
#        75704
#        86245
#        96968
#        105610
#        117059
#        127720
#        139279
#        151787
#        164528
#        174579
#        186833
#        198996
#        208921
#        218689
#        231333
#        241326
#        251790
#        261188
#        274780
#        283694
#        298409
#        307955
#        317493
#        328185
#        338741
#
# Disc length: 4684 seconds
#
# Revision: 0
# Processed by: cddbd v1.5.2PL0 Copyright (c) Steve Scherf et al.
# Submitted via: ExactAudioCopyFreeDBPlugin 1.0
#
DISCID=ca124a1f
DTITLE=Various Artist - Starday Custom Series #500 - 675 [CD6]
DYEAR=2017
DGENRE=Country
TTITLE0=The Delmar Williams Singers - I Wanna Walk A Little Closer
TTITLE1=The Delmar Williams Singers - The Gates Will Swing Wide
TTITLE2=The Delmar Williams Singers - My Journey Home
TTITLE3=The Delmar Williams Singers - The Last Love Letter
TTITLE4=Tennessee George and The Pennsylvania Plowboys - Cry Baby
TTITLE5=Tennessee George and The Pennsylvania Plowboys - Butter Ball
TTITLE6=Andy Doll's 6 Men and 16 Instruments - Goodbye Mary Ann
TTITLE7=Andy Doll's 6 Men and 16 Instruments - Honey Dew
TTITLE8=Slim Coxx and His Cowboy Caravan - Mocking Bird Special
TTITLE9=Slim Coxx and His Cowboy Caravan - Lonely Nights
TTITLE10=Joe Brown and The Black Mt. Boys - Midnight Rhythm
TTITLE11=Joe Brown and The Black Mt. Boys - Fishin' Fever
TTITLE12=Curley Sanders - Why Did You Leave Me
TTITLE13=Curley Sanders - Brand New Rock And Roll
TTITLE14=Gene Sterling - Living A Lie
TTITLE15=Gene Sterling - I Won't Be Back No More
TTITLE16=Roland R.A. Faulk - You'll Never Know
TTITLE17=Roland R.A. Faulk - My Baby's Gone
TTITLE18=Northwest Troubadors - Hey Mister Cropper
TTITLE19=Northwest Troubadors - I'm Free At Last
TTITLE20=Dorothy Blakley - Piano Bells
TTITLE21=Dorothy Blakley - Yodelin' Ivory Waltz
TTITLE22=Jimmy Simpson and His Oilfield Playboys - Can I Come Home
TTITLE23=Jimmy Simpson and His Oilfield Playboys - Memories Of You
TTITLE24=Truitt Forse - Chicken Bop
TTITLE25=Truitt Forse - Doggone Dame
TTITLE26=Leon Holmes and His Georgia Ramblers - She's My Baby
TTITLE27=Leon Holmes and His Georgia Ramblers - You're Not Mine Anymore
TTITLE28=Gene Terry and His Kool Kats - The Woman I Love
TTITLE29=Gene Terry and His Kool Kats - Tip, Tap And Tell Me
TTITLE30=Frank Bowen and Dave Warren and The Ark. Valley Wranglers - A Bro
TTITLE30=ken Heart
EXTD=
EXTT0=
EXTT1=
EXTT2=
EXTT3=
EXTT4=
EXTT5=
EXTT6=
EXTT7=
EXTT8=
EXTT9=
EXTT10=
EXTT11=
EXTT12=
EXTT13=
EXTT14=
EXTT15=
EXTT16=
EXTT17=
EXTT18=
EXTT19=
EXTT20=
EXTT21=
EXTT22=
EXTT23=
EXTT24=
EXTT25=
EXTT26=
EXTT27=
EXTT28=
EXTT29=
EXTT30=
PLAYORDER=
